<?xml version="1.0" encoding="UTF-8"?>
<svg width="208px" height="76px" viewBox="0 0 208 76" version="1.1" xmlns="http://www.w3.org/2000/svg" xmlns:xlink="http://www.w3.org/1999/xlink">
    <!-- Generator: Sketch 52.4 (67378) - http://www.bohemiancoding.com/sketch -->
    <title>eatlist</title>
    <desc>Created with Sketch.</desc>
    <g id="V1" stroke="none" stroke-width="1" fill="none" fill-rule="evenodd">
        <g id="splash" transform="translate(-84.000000, -296.000000)" fill="#151A1B">
            <path d="M104.075853,321.430538 C100.082663,321.430538 97.1152469,324.402938 96.785534,328.54962 L111.292902,328.54962 C111.073093,324.292849 108.178947,321.430538 104.075853,321.430538 Z M111.58598,340.475919 L123.309106,340.475919 C122.063524,348.732587 114.73657,354.053551 104.295661,354.053551 C91.5833969,354.053551 84,346.237238 84,333.32014 C84,320.403041 91.6566665,312.183069 103.856044,312.183069 C115.872248,312.183069 123.528914,320.072775 123.528914,332.292643 L123.528914,335.962274 L96.6023601,335.962274 L96.6023601,336.769592 C96.6023601,341.540112 99.7895849,344.842779 104.478835,344.842779 C107.959138,344.842779 110.670111,343.191445 111.58598,340.475919 Z M142.174077,344.73269 C146.130632,344.73269 149.5743,342.310734 149.5743,338.751193 L149.5743,335.99897 L142.320616,336.476022 C138.913583,336.732896 137.008575,338.310837 137.008575,340.6594 C137.008575,343.191445 139.096756,344.73269 142.174077,344.73269 Z M137.558096,353.686588 C130.157873,353.686588 124.149771,348.769283 124.149771,341.540112 C124.149771,334.054066 129.90143,329.870687 140.232434,329.24685 L149.5743,328.696406 L149.5743,326.421235 C149.5743,323.228657 147.302944,321.467234 143.895911,321.467234 C140.378973,321.467234 138.144253,323.302049 137.777905,325.760701 L126.091414,325.760701 C126.457762,317.577426 133.418367,312.183069 144.555337,312.183069 C155.216054,312.183069 162.286564,317.650819 162.286564,325.687309 L162.286564,353.099447 L149.64757,353.099447 L149.64757,347.41152 L149.391126,347.41152 C147.229675,351.448113 142.357251,353.686588 137.558096,353.686588 Z M168.842254,304.183275 L181.847596,304.183275 L181.847596,313.137173 L189.028011,313.137173 L189.028011,322.714908 L181.847596,322.714908 L181.847596,339.485119 C181.847596,342.237341 183.312987,343.631801 186.426942,343.631801 C187.452716,343.631801 188.222046,343.595105 188.991376,343.448319 L188.991376,352.695788 C187.745794,352.952662 185.840786,353.17284 183.312987,353.17284 C172.945348,353.17284 168.842254,349.980261 168.842254,342.127252 L168.842254,322.714908 L163.420308,322.714908 L163.420308,313.137173 L168.842254,313.137173 L168.842254,304.183275 Z M208.046789,358.961461 L292,358.961461 L292,371.988649 L208.046789,371.988649 L208.046789,372 L195.041447,372 L195.041447,300.008215 L208.046789,300.008215 L208.046789,358.961461 Z M214.36954,353.099447 L214.36954,313.137173 L227.338248,313.137173 L227.338248,353.099447 L214.36954,353.099447 Z M220.780624,308.586832 C217.227052,308.586832 214.406175,305.72452 214.406175,302.311764 C214.406175,298.862312 217.227052,296 220.780624,296 C224.370831,296 227.191709,298.862312 227.191709,302.311764 C227.191709,305.72452 224.370831,308.586832 220.780624,308.586832 Z M230.120556,325.246953 C230.120556,317.247159 236.934623,312.183069 247.851783,312.183069 C258.842214,312.183069 265.436472,317.54073 265.65628,325.760701 L253.786616,325.760701 C253.530172,322.935086 251.441991,320.953486 247.851783,320.953486 C244.701193,320.953486 242.576377,322.347945 242.576377,324.513027 C242.576377,326.237753 243.748689,327.338642 247.558705,328.109265 L254.592581,329.503724 C263.091847,331.155058 266.755324,334.457725 266.755324,340.439223 C266.755324,348.732587 259.281831,354.053551 248.328035,354.053551 C236.458371,354.053551 229.864112,348.695891 229.168052,340.6594 L241.770412,340.6594 C242.319933,343.631801 244.554654,345.283135 248.328035,345.283135 C251.771703,345.283135 253.89652,343.962068 253.89652,341.870378 C253.89652,340.07226 252.614303,339.118156 248.987461,338.38423 L241.99022,336.98977 C234.15038,335.448525 230.120556,331.338539 230.120556,325.246953 Z M271.699083,304.183275 L284.704425,304.183275 L284.704425,313.137173 L291.88484,313.137173 L291.88484,322.714908 L284.704425,322.714908 L284.704425,339.485119 C284.704425,342.237341 286.169816,343.631801 289.283771,343.631801 C290.309545,343.631801 291.078875,343.595105 291.848205,343.448319 L291.848205,352.695788 C290.602623,352.952662 288.697615,353.17284 286.169816,353.17284 C275.802177,353.17284 271.699083,349.980261 271.699083,342.127252 L271.699083,322.714908 L266.277137,322.714908 L266.277137,313.137173 L271.699083,313.137173 L271.699083,304.183275 Z" id="eatlist"></path>
        </g>
    </g>
</svg>